<svg xmlns="http://www.w3.org/2000/svg" width="512" height="512" viewBox="0 0 512 512" role="img" aria-label="WCAMPER Wiki favicon">
  <defs>
    <linearGradient id="g" x1="0" y1="0" x2="1" y2="1">
      <stop offset="0" stop-color="#0f766e"/>
      <stop offset="1" stop-color="#0b5f58"/>
    </linearGradient>
    <filter id="s" x="-20%" y="-20%" width="140%" height="140%">
      <feDropShadow dx="0" dy="14" stdDeviation="18" flood-color="#0b1220" flood-opacity="0.20"/>
    </filter>
  </defs>

  <!-- background -->
  <rect x="48" y="48" width="416" height="416" rx="96" fill="#ffffff"/>
  <rect x="68" y="68" width="376" height="376" rx="80" fill="url(#g)" filter="url(#s)"/>

  <!-- book -->
  <path d="M150 150c0-18 14-32 32-32h132c16 0 30 6 40 16 10-10 24-16 40-16h10c18 0 32 14 32 32v224c0 18-14 32-32 32h-10c-16 0-30 6-40 16-10-10-24-16-40-16H182c-18 0-32-14-32-32V150z"
        fill="#ffffff" fill-opacity="0.14" stroke="#ffffff" stroke-opacity="0.55" stroke-width="10" />

  <!-- center spine -->
  <path d="M322 126v260" stroke="#ffffff" stroke-opacity="0.55" stroke-width="10" stroke-linecap="round"/>

  <!-- W -->
  <path d="M180 214l26 116 30-86 30 86 26-116"
        fill="none" stroke="#ffffff" stroke-width="22" stroke-linecap="round" stroke-linejoin="round"/>

  <!-- small bookmark -->
  <path d="M366 146h34c8 0 14 6 14 14v78l-31-18-31 18v-78c0-8 6-14 14-14z"
        fill="#ffffff" fill-opacity="0.22" stroke="#ffffff" stroke-opacity="0.45" stroke-width="6" />
</svg>
